<svg width="1441" height="431" viewBox="0 0 1441 431" fill="none" xmlns="http://www.w3.org/2000/svg">
<g clip-path="url(#clip0_756_212)">
<path d="M405.44 163.418C422.012 160.859 438.869 160.854 455.44 163.422V429.5H405.44V163.418Z" fill="#F9F6F1" stroke="#18191C"/>
<path d="M779.44 163.428C796.012 160.869 812.869 160.864 829.44 163.432V429.5H779.44V163.428Z" fill="#F9F6F1" stroke="#18191C"/>
<path d="M1343.49 163.417C1359.72 160.86 1376.25 160.855 1392.49 163.421V429.5H1343.49V163.417Z" fill="#F9F6F1" stroke="#18191C"/>
<path d="M1397.49 187.235C1411.74 184.921 1426.24 184.915 1440.49 187.238V429.5H1397.49V187.235Z" fill="#F9F6F1" stroke="#18191C"/>
<path d="M1238.72 150.466C1216.44 112.448 1183.17 81.1438 1122.72 89.3043C1043.9 99.9381 1026.23 168.305 1025.11 191.328C1022.64 242.645 1061.6 320.654 1154.01 308.789C1254.67 295.862 1262.63 191.233 1238.72 150.466ZM1149.76 280.473C1081.18 289.266 1052.27 231.39 1054.11 193.3C1054.93 176.226 1068.04 125.483 1126.53 117.585C1171.39 111.528 1196.07 134.767 1212.62 162.976C1230.37 193.24 1224.45 270.878 1149.74 280.473H1149.76Z" fill="#F8EF64"/>
<path d="M1195.48 171.024C1182.61 149.106 1163.39 131.052 1128.46 135.75C1082.92 141.875 1072.71 181.312 1072.06 194.572C1070.63 224.162 1093.15 269.141 1146.53 262.302C1204.7 254.846 1209.3 194.513 1195.48 171.012V171.024ZM1143.1 239.492C1108.96 243.868 1094.57 215.099 1095.47 196.178C1095.88 187.698 1102.42 162.485 1131.53 158.56C1153.87 155.551 1166.17 167.1 1174.4 181.121C1183.24 196.154 1180.29 234.735 1143.1 239.504V239.492Z" fill="#F8EF64"/>
<path d="M1140.36 217.792C1124.34 219.827 1117.59 206.48 1118.02 197.688C1118.21 193.748 1121.28 182.045 1134.94 180.223C1145.42 178.827 1151.18 184.187 1155.05 190.683C1159.19 197.664 1157.81 215.579 1140.35 217.78L1140.36 217.792Z" fill="#F8EF64"/>
<path d="M1264.12 59.6153L1152.44 185.46L1164.58 186.243L1138 199.181L1148.15 171.262L1150.17 183.394L1262.74 56.7387L1264.12 59.6153Z" stroke="#18191C"/>
<path d="M1219.35 110.238C1230.87 106.62 1241.51 107.02 1249.23 103.699L1287.03 61.3426C1278.76 62.0607 1270.01 63.3291 1258.84 65.635L1219.35 110.25L1219.35 110.238Z" stroke="#18191C"/>
<path d="M1274.07 4.90292L1228.51 54.8611" stroke="#18191C"/>
<path d="M1247.95 24.3368L1216.96 58.1047" stroke="#18191C"/>
<path d="M1261.13 100.824L1281.2 78.0171" stroke="#18191C"/>
<path d="M1194.31 147.812L1221.38 116.777" stroke="#18191C"/>
<path d="M1253.55 71.7507C1258.19 69.8159 1280.65 68.8322 1281.78 67.1747" stroke="#18191C"/>
<path d="M1247.88 78.0932C1252.52 76.1465 1275.17 74.9592 1276.31 73.3136" stroke="#18191C"/>
<path d="M1240.56 85.439C1247.08 83.5149 1254.71 83.7503 1261.46 83.0206C1263.61 82.8249 1265.89 82.6207 1267.98 82.1176L1268.65 82.6463C1268.2 83.1908 1267.46 83.3845 1266.81 83.543C1259.58 84.7639 1251.51 84.7139 1244.28 85.79C1243.15 85.9594 1242.01 86.1627 1241.04 86.5319L1240.57 85.4287L1240.56 85.439Z" fill="#18191C"/>
<path d="M1235.51 91.3794C1242.09 89.4037 1249.73 89.4957 1256.53 88.6642C1258.71 88.4361 1261 88.1979 1263.09 87.646L1263.75 88.1747C1263.31 88.7192 1262.56 88.9248 1261.92 89.095C1254.65 90.4193 1246.51 90.5288 1239.23 91.6949C1238.1 91.8761 1236.94 92.0898 1235.96 92.4693L1235.5 91.3661L1235.51 91.3794Z" fill="#18191C"/>
<path d="M1229.88 97.4396C1236.51 95.4699 1244.2 95.4719 1251.06 94.5873C1253.25 94.337 1255.55 94.0767 1257.67 93.516L1258.33 94.0447C1258.1 94.3517 1257.73 94.5564 1257.39 94.6814C1255.4 95.3901 1253.26 95.4912 1251.18 95.78C1247.05 96.2292 1241.18 96.7817 1237.11 97.2753C1234.87 97.5786 1232.43 97.7989 1230.33 98.5414L1229.88 97.4396Z" fill="#18191C"/>
<path d="M1224.21 104.106C1232.97 101.457 1242.75 101.256 1251.64 99.1767C1252 99.0902 1252.79 98.8906 1253.16 98.7687L1253.82 99.2974C1252.88 100.295 1251.36 100.415 1250.11 100.736C1247.66 101.266 1241.65 102.126 1239.09 102.534C1234.3 103.344 1229.3 103.778 1224.66 105.208L1224.21 104.106Z" fill="#18191C"/>
<path d="M1219.07 105.784C1221.54 94.184 1220.24 84.2558 1222.76 76.3619L1258.76 35.6031C1258.8 43.6538 1257.99 52.4019 1256.75 63.4856L1219.06 105.794L1219.07 105.784Z" stroke="#18191C"/>
<path d="M1252.65 68.1536C1254.12 63.4157 1253.06 41.7017 1254.55 40.3656" stroke="#18191C"/>
<path d="M1242.32 79.7901C1243.79 75.0522 1242.72 53.4327 1244.21 52.1084" stroke="#18191C"/>
<path d="M1247.6 73.8546C1249.07 69.1167 1248.2 47.1739 1249.69 45.8496" stroke="#18191C"/>
<!-- <path d="M1234.45 87.9063C1235.58 81.5778 1235.06 74.0183 1235.35 67.5213C1235.45 65.4925 1235.36 63.4162 1235.89 61.4296C1236 61.1195 1236.06 60.827 1236.42 60.4641L1237.03 61.0578L1236.93 61.6694C1236.46 65.1648 1236.54 70.8187 1236.48 74.4021C1236.35 79.033 1236.64 83.681 1235.59 88.2556L1234.45 87.9063Z" fill="#18191C"/> -->
<path d="M1229.03 94.029C1230.14 87.6724 1229.59 80.0848 1229.83 73.5714C1229.94 71.5427 1229.84 69.453 1230.34 67.4634C1230.46 67.1533 1230.52 66.8608 1230.88 66.4862L1231.48 67.0916L1231.38 67.7032C1230.94 71.2135 1231.04 76.8822 1230.99 80.4789C1230.88 85.1365 1231.19 89.7874 1230.16 94.3768L1229.02 94.0275L1229.03 94.029Z" fill="#18191C"/>
<path d="M1222.63 101.239C1223.88 94.5414 1223.78 86.6147 1224.37 79.7473C1224.62 77.4617 1224.53 75.0603 1225.38 72.8984C1225.46 72.705 1225.59 72.5294 1225.74 72.3804L1226.35 72.9859L1226.22 73.6536C1225.6 77.3335 1225.39 83.2883 1225.17 87.0664C1224.83 91.9349 1224.88 96.8056 1223.78 101.602L1222.64 101.252L1222.63 101.239Z" fill="#18191C"/>
<path d="M1295.49 217.235C1309.74 214.921 1324.24 214.915 1338.49 217.238V429.5H1295.49V217.235Z" fill="#F9F6F1" stroke="#18191C"/>
<path d="M1217.76 213.827L1290.35 413.281L1246.18 429.359L1173.59 229.903C1187.43 222.388 1202.33 216.969 1217.76 213.827Z" fill="#F9F6F1" stroke="#18191C"/>
<path d="M515.44 165.402C530.349 162.871 545.523 162.866 560.44 165.405V429.51H515.44V165.402Z" fill="#F9F6F1" stroke="#18191C"/>
<path d="M354.44 173.408C369.671 170.856 385.217 170.857 400.44 173.412V429.5H354.44V173.408Z" fill="#F9F6F1" stroke="#18191C"/>
<path d="M677.44 173.408C692.671 170.856 708.217 170.857 723.44 173.412V429.5H677.44V173.408Z" fill="#F9F6F1" stroke="#18191C"/>
<path d="M728.44 173.408C743.671 170.856 759.217 170.857 774.44 173.412V429.5H728.44V173.408Z" fill="#F9F6F1" stroke="#18191C"/>
<path d="M565.44 173.413C581.994 170.854 598.894 170.855 615.44 173.418V429.5H565.44V173.413Z" fill="#F9F6F1" stroke="#18191C"/>
<path d="M297.44 429.5V183.421C314.681 180.863 332.198 180.863 349.44 183.421V429.5H297.44Z" fill="#F9F6F1" stroke="#18191C"/>
<path d="M460.44 429.5V183.418C477.012 180.864 493.868 180.864 510.44 183.418V429.5H460.44Z" fill="#F9F6F1" stroke="#18191C"/>
<path d="M620.44 429.5V183.421C637.672 180.863 655.208 180.863 672.44 183.421V429.5H620.44Z" fill="#F9F6F1" stroke="#18191C"/>
<path d="M834.44 429.5V183.428C851.012 180.874 867.868 180.874 884.44 183.428V429.5H834.44Z" fill="#F9F6F1" stroke="#18191C"/>
<path d="M909.363 383.5H1165.52C1168.06 398.723 1168.06 414.277 1165.52 429.5H909.363C906.816 414.277 906.816 398.723 909.363 383.5Z" fill="#F9F6F1" stroke="#18191C"/>
<path d="M893.371 326.5H1135.51C1138.07 343.742 1138.07 361.258 1135.51 378.5H893.371C890.813 361.258 890.813 343.742 893.371 326.5Z" fill="#F9F6F1" stroke="#18191C"/>
<path d="M1181.52 276.54H929.359C926.792 291.212 926.756 306.22 929.253 320.906C929.253 320.906 929.253 320.906 929.253 320.906L929.362 321.54H1181.52L1181.63 320.906L1181.52 276.54ZM1181.52 276.54C1184.09 291.212 1184.12 306.22 1181.63 320.906L1181.52 276.54Z" fill="#F9F6F1" stroke="#18191C"/>
<path d="M132.94 181.99C148.16 179.34 163.72 179.34 178.94 181.99V430H132.94V181.99Z" fill="#18191C"/>
<path d="M182.94 161.99C201.51 159.34 220.37 159.34 238.94 161.99V430H182.94V161.99Z" fill="#18191C"/>
<path d="M242.94 171.99C259.5 169.34 276.38 169.34 292.94 171.99V430H242.94V171.99Z" fill="#18191C"/>
<path d="M80.3916 192.466L0.0065918 413.322L48.5605 430.994L128.946 210.138L80.3916 192.466Z" fill="#18191C"/>
</g>
<defs>
<clipPath id="clip0_756_212">
<rect width="1441" height="431" fill="white"/>
</clipPath>
</defs>
</svg>
