<svg width="259" height="33" viewBox="0 0 259 33" fill="none" xmlns="http://www.w3.org/2000/svg">
<path d="M45.091 33.0001C42.9623 33.0001 40.9751 32.5841 39.1417 31.7457C37.3021 30.9137 35.6902 29.7553 34.3059 28.2833C32.9216 26.8113 31.8388 25.1153 31.0697 23.1825C30.2945 21.2561 29.9131 19.1825 29.9131 16.9681C29.9131 14.7537 30.3007 12.6801 31.0697 10.7537C31.8449 8.8273 32.9216 7.1249 34.3059 5.6529C35.6902 4.1809 37.3021 3.0353 39.1417 2.2161C40.9812 1.3969 42.9623 0.987305 45.091 0.987305C47.2197 0.987305 49.207 1.3969 51.0404 2.2161C52.8799 3.0353 54.4918 4.1809 55.8761 5.6529C57.2604 7.1249 58.3432 8.8273 59.1123 10.7537C59.8875 12.6801 60.2689 14.7537 60.2689 16.9681C60.2689 19.1825 59.8813 21.2561 59.1123 23.1825C58.3371 25.1089 57.2604 26.8113 55.8761 28.2833C54.4918 29.7553 52.8799 30.9073 51.0404 31.7457C49.2008 32.5777 47.2197 33.0001 45.091 33.0001ZM45.091 27.5857C47.0167 27.5857 48.6778 27.0865 50.0806 26.0817C51.4833 25.0833 52.5662 23.7713 53.3414 22.1457C54.1166 20.5201 54.498 18.7537 54.498 16.8401C54.498 14.9265 54.1166 13.1217 53.3598 11.5153C52.6031 9.90891 51.5141 8.61611 50.099 7.6433C48.684 6.67051 47.0167 6.1841 45.091 6.1841C43.1653 6.1841 41.498 6.67051 40.083 7.6433C38.6679 8.61611 37.579 9.9025 36.8222 11.5153C36.0655 13.1217 35.684 14.9009 35.684 16.8401C35.684 18.7793 36.0655 20.5201 36.8222 22.1457C37.579 23.7713 38.6679 25.0833 40.083 26.0817C41.498 27.0865 43.1653 27.5857 45.091 27.5857Z" fill="#18191C"/>
<path d="M79.6486 33.0001C77.5199 33.0001 75.5327 32.5841 73.6993 31.7457C71.8597 30.9137 70.2478 29.7553 68.8635 28.2833C67.4792 26.8113 66.3964 25.1153 65.6273 23.1825C64.8521 21.2561 64.4707 19.1825 64.4707 16.9681C64.4707 14.7537 64.8583 12.6801 65.6273 10.7537C66.4025 8.8273 67.4792 7.1249 68.8635 5.6529C70.2478 4.1809 71.8597 3.0353 73.6993 2.2161C75.5388 1.3969 77.5199 0.987305 79.6486 0.987305C81.7774 0.987305 83.7646 1.3969 85.598 2.2161C87.4375 3.0353 89.0495 4.1809 90.4338 5.6529C91.818 7.1249 92.9009 8.8273 93.6699 10.7537C94.4451 12.6801 94.8266 14.7537 94.8266 16.9681C94.8266 19.1825 94.4389 21.2561 93.6699 23.1825C92.8947 25.1089 91.818 26.8113 90.4338 28.2833C89.0495 29.7553 87.4375 30.9073 85.598 31.7457C83.7584 32.5777 81.7774 33.0001 79.6486 33.0001ZM79.6486 27.5857C81.5743 27.5857 83.2355 27.0865 84.6382 26.0817C86.041 25.0833 87.1238 23.7713 87.899 22.1457C88.6742 20.5201 89.0556 18.7537 89.0556 16.8401C89.0556 14.9265 88.6742 13.1217 87.9174 11.5153C87.1607 9.90891 86.0717 8.61611 84.6567 7.6433C83.2416 6.67051 81.5743 6.1841 79.6486 6.1841C77.7229 6.1841 76.0556 6.67051 74.6406 7.6433C73.2255 8.61611 72.1366 9.9025 71.3798 11.5153C70.6231 13.1217 70.2416 14.9009 70.2416 16.8401C70.2416 18.7793 70.6231 20.5201 71.3798 22.1457C72.1366 23.7713 73.2255 25.0833 74.6406 26.0817C76.0556 27.0865 77.7229 27.5857 79.6486 27.5857Z" fill="#18191C"/>
<path d="M126.592 27.3105L130.443 23.6241C130.941 24.1681 131.52 24.7633 132.19 25.3969C132.861 26.0369 133.661 26.5809 134.596 27.0353C135.531 27.4897 136.608 27.7201 137.832 27.7201C139.555 27.7201 140.828 27.3041 141.659 26.4657C142.489 25.6337 142.908 24.6545 142.908 23.5281C142.908 22.2225 142.397 21.2049 141.376 20.4753C140.354 19.7457 138.533 19.1249 135.906 18.6065C134.128 18.2417 132.658 17.6209 131.507 16.7377C130.357 15.8609 129.496 14.8049 128.923 13.5761C128.357 12.3473 128.068 11.0673 128.068 9.72965C128.068 8.18085 128.437 6.74725 129.182 5.42885C129.926 4.11045 131.046 3.04165 132.553 2.22245C134.054 1.40325 135.943 0.993652 138.22 0.993652C139.764 0.993652 141.093 1.16645 142.2 1.51845C143.308 1.87045 144.237 2.29285 144.981 2.79205C145.726 3.29125 146.298 3.77765 146.71 4.25125C147.116 4.72485 147.411 5.06405 147.584 5.27525L143.954 8.82725C143.781 8.64805 143.437 8.32805 142.926 7.87365C142.416 7.41925 141.757 7.00325 140.957 6.61925C140.158 6.24165 139.186 6.04965 138.047 6.04965C136.528 6.04965 135.414 6.42725 134.7 7.18885C133.987 7.95045 133.63 8.70565 133.63 9.46725C133.63 10.5297 134.048 11.4001 134.879 12.0849C135.709 12.7697 137.321 13.3649 139.715 13.8833C141.228 14.2161 142.655 14.7537 143.978 15.4961C145.307 16.2385 146.378 17.2689 147.196 18.5937C148.014 19.9121 148.42 21.6081 148.42 23.6689C148.42 25.4289 147.965 27.0161 147.067 28.4241C146.162 29.8321 144.913 30.9521 143.326 31.7713C141.739 32.5905 139.936 33.0001 137.924 33.0001C135.912 33.0001 134.301 32.6993 132.824 32.0913C131.354 31.4833 130.098 30.7345 129.059 29.8385C128.025 28.9425 127.201 28.1041 126.585 27.3105H126.592Z" fill="#18191C"/>
<path d="M175.718 23.1695L179.57 26.6319C178.985 27.5407 178.112 28.4815 176.943 29.4543C175.774 30.4271 174.389 31.2463 172.784 31.9119C171.178 32.5775 169.443 32.9103 167.579 32.9103C164.693 32.9103 162.134 32.2255 159.901 30.8623C157.667 29.4991 155.92 27.6239 154.653 25.2431C153.385 22.8623 152.751 20.1679 152.751 17.1663C152.751 14.9519 153.114 12.8719 153.847 10.9327C154.573 8.99355 155.606 7.28475 156.929 5.81275C158.258 4.34075 159.839 3.18875 161.679 2.35035C163.518 1.51835 165.542 1.09595 167.763 1.09595C170.649 1.09595 173.048 1.68475 174.962 2.86875C176.875 4.05275 178.413 5.49275 179.576 7.19515L175.681 10.7919C174.746 9.39675 173.663 8.27675 172.421 7.42555C171.178 6.57435 169.627 6.15195 167.763 6.15195C165.899 6.15195 164.226 6.65115 162.841 7.65595C161.457 8.65435 160.393 9.98555 159.648 11.6367C158.904 13.2879 158.535 15.0863 158.535 17.0319C158.535 18.9775 158.904 20.7375 159.648 22.3119C160.393 23.8927 161.432 25.1471 162.78 26.0879C164.121 27.0287 165.696 27.4959 167.505 27.4959C169.197 27.4959 170.563 27.2399 171.596 26.7215C172.63 26.2031 173.46 25.6079 174.088 24.9231C174.715 24.2383 175.263 23.6559 175.731 23.1695H175.718Z" fill="#18191C"/>
<path d="M182.332 32.1807L193.4 1.81909H199.091L210.159 32.1807H204.032L201.491 24.4879H190.638L188.097 32.1807H182.32H182.332ZM192.176 19.7519H199.922L196.07 7.96309L192.176 19.7519Z" fill="#18191C"/>
<path d="M215.401 32.1807V1.81909H224.765C226.808 1.81909 228.487 2.13909 229.798 2.77269C231.108 3.41269 232.136 4.21909 232.88 5.21109C233.625 6.19669 234.141 7.22709 234.43 8.30869C234.72 9.38389 234.867 10.3823 234.867 11.2911C234.867 12.9935 234.584 14.4463 234.012 15.6623C233.446 16.8783 232.677 17.8703 231.717 18.6447C230.758 19.4191 229.699 19.9887 228.543 20.3535C227.392 20.7183 226.248 20.8975 225.11 20.8975H220.692V32.1871H215.395L215.401 32.1807ZM220.692 16.0655H224.673C226.045 16.0655 227.152 15.6303 228.001 14.7663C228.844 13.9023 229.269 12.8015 229.269 11.4639C229.269 10.0367 228.832 8.87829 227.958 7.98229C227.085 7.08629 225.989 6.63829 224.679 6.63829H220.698V16.0591L220.692 16.0655Z" fill="#18191C"/>
<path d="M239.998 32.1807V1.81909H257.785V6.86869H246.095V14.0175H255.471V19.1183H245.511V27.0415H258.4V32.1871H239.998V32.1807Z" fill="#18191C"/>
<path d="M23.8528 16.5841C23.2929 16.0593 22.6777 15.6433 22.0378 15.3233C24.7572 12.0337 24.4926 7.0545 21.3611 4.1617C19.5953 2.5361 17.522 1.7425 15.5348 1.8001H15.5471L0 1.7937V25.4929L14.6119 8.6033C15.4056 7.6817 16.7714 7.6113 17.6512 8.4369C18.5371 9.2625 18.6048 10.6833 17.8111 11.5985L8.63179 22.2033L0 32.1809H7.45053L17.1036 21.0257C17.8973 20.1041 19.2631 20.0337 20.1429 20.8593C21.0288 21.6849 21.0965 23.1057 20.3029 24.0209L13.2461 32.1745H20.6966L24.4188 27.8737C27.2612 24.5905 27.009 19.5345 23.8466 16.5777L23.8528 16.5841Z" fill="#0E1EAB"/>
<path d="M100.456 32.1807V1.81909H105.968V14.2927L116.766 1.81909H123.017L112.262 14.2479L124.198 32.1807H117.553L108.675 18.3887L105.962 21.5311V32.1807H100.45H100.456Z" fill="#18191C"/>
</svg>
